# xmcd
#
# Track frame offsets: 
#        150
#        13428
#        27203
#        40513
#        54640
#        69039
#        81777
#        94126
#        107787
#        120858
#        134436
#        148825
#        162974
#        177250
#        192263
#        206636
#        220739
#        234419
#        247596
#        260894
#        275332
#        288857
#        301350
#        315330
#
# Disc length: 4378 seconds
#
# Revision: 0
# Processed by: cddbd v1.5.2PL0 Copyright (c) Steve Scherf et al.
# Submitted via: ExactAudioCopy v0.99pb5
#
DISCID=4c111818
DTITLE=Various Artist - East Coast Blues and Gospel Songs (1933-34)
DYEAR=1934
DGENRE=Blues
TTITLE0=Sparkplug Smith - Mama's Doughnut (1933)
TTITLE1=Sparkplug Smith - Motherless Boy (1933)
TTITLE2=Sparkplug Smith - Stopped Clock Blues (1933)
TTITLE3=Sparkplug Smith - Deserted Man Blues (1933)
TTITLE4=Sparkplug Smith - You Put That Thing On Me (1933)
TTITLE5=Sparkplug Smith - Sweet Evening Breeze (1933)
TTITLE6=Sparkplug Smith - In A Shanty In Old Shanty Town (1933)
TTITLE7=Sparkplug Smith - Vampire Woman (1933)
TTITLE8=Sparkplug Smith - New Blue Heaven (My Little Blue Heaven) (193
TTITLE8=3)
TTITLE9=Sparkplug Smith - Make It Tight (1933)
TTITLE10=Tallahassee Tight - Had A Dream That Troubled Me (1934)
TTITLE11=Tallahassee Tight - Run Sinner Run (1934)
TTITLE12=Tallahassee Tight - Standing On A Rock (1934)
TTITLE13=Tallahassee Tight - Lonesome And Worried Blues (1934)
TTITLE14=Tallahassee Tight - Ramblin' Mind Blues (1934)
TTITLE15=Tallahassee Tight - Black Gal (1934)
TTITLE16=Tallahassee Tight - Quincey Wimmens (1934)
TTITLE17=Tallahassee Tight - Tallahassee Women (1934)
TTITLE18=Tallahassee Tight - Coast Line Blues (1934)
TTITLE19=Tallahassee Tight - Black Snake Blues (1934)
TTITLE20=Tallahassee Tight - Screaming Woman (1934)
TTITLE21=Tallahassee Tight - Homesick Blues (1934)
TTITLE22=Tallahassee Tight - Got Heaven In My View (1934)
TTITLE23=Tallahassee Tight - Jealous Man (1934)
EXTD=
EXTT0=
EXTT1=
EXTT2=
EXTT3=
EXTT4=
EXTT5=
EXTT6=
EXTT7=
EXTT8=
EXTT9=
EXTT10=
EXTT11=
EXTT12=
EXTT13=
EXTT14=
EXTT15=
EXTT16=
EXTT17=
EXTT18=
EXTT19=
EXTT20=
EXTT21=
EXTT22=
EXTT23=
PLAYORDER=
